<svg width="302" height="242" viewBox="0 0 302 242" fill="none" xmlns="http://www.w3.org/2000/svg">
  <g clip-path="url(#clip0_347_4805)">
    <path
      d="M120.6 237.25C74.9399 237.25 35.5999 214.76 17.9299 178.55C-9.30011 122.75 21.7899 51.37 87.2299 19.43C107.92 9.33 130.53 4 152.63 4C198.29 4 237.63 26.49 255.3 62.7C268.55 89.84 268.56 121.39 255.34 151.52C242.22 181.43 217.59 206.39 186 221.81C165.31 231.91 142.7 237.24 120.6 237.24V237.25Z"
      fill="#CCAA83" />
    <path
      d="M152.63 8C195.38 8 234.04 28.25 251.71 64.46C278.01 118.36 247.81 187.2 184.25 218.22C163.38 228.4 141.5 233.25 120.61 233.25C77.8599 233.25 39.1999 213 21.5299 176.79C-4.78005 122.89 25.4199 54.05 88.9899 23.03C109.86 12.85 131.74 8 152.63 8ZM152.64 0H152.63C129.93 0 106.7 5.48 85.4799 15.84C53.0299 31.67 27.7299 57.34 14.2299 88.11C0.529945 119.34 0.559945 152.08 14.3299 180.29C23.5799 199.24 38.5999 214.9 57.7599 225.58C76.1599 235.83 97.8899 241.24 120.6 241.24C143.31 241.24 166.52 235.76 187.75 225.4C220.19 209.57 245.5 183.9 259 153.12C272.7 121.89 272.67 89.15 258.9 60.94C249.65 41.99 234.63 26.33 215.47 15.66C197.07 5.42 175.35 0 152.64 0Z"
      fill="#666260" />
    <path
      d="M60.55 111.43C60.55 111.43 63.38 103.57 78 104.06C92.62 104.55 102.77 107.22 99.51 111.98C96.24 116.74 89.17 115.8 85.41 115.99C81.65 116.18 57.31 119.2 60.55 111.43Z"
      fill="#EDBCBC" />
    <path
      d="M166.87 111.43C166.87 111.43 169.7 103.57 184.32 104.06C198.94 104.55 209.09 107.22 205.83 111.98C202.57 116.74 195.49 115.8 191.73 115.99C187.97 116.18 163.63 119.2 166.87 111.43Z"
      fill="#EDBCBC" />
    <path
      d="M103.85 110.11C105.91 110.11 107.58 107.249 107.58 103.72C107.58 100.191 105.91 97.3301 103.85 97.3301C101.79 97.3301 100.12 100.191 100.12 103.72C100.12 107.249 101.79 110.11 103.85 110.11Z"
      fill="#666260" />
    <path
      d="M103.85 113.61C99.73 113.61 96.62 109.36 96.62 103.72C96.62 98.0801 99.73 93.8301 103.85 93.8301C107.97 93.8301 111.08 98.0801 111.08 103.72C111.08 109.36 107.97 113.61 103.85 113.61ZM103.85 101.94C103.72 102.41 103.62 103.01 103.62 103.72C103.62 104.43 103.72 105.03 103.85 105.5C103.98 105.03 104.08 104.43 104.08 103.72C104.08 103.01 103.98 102.41 103.85 101.94Z"
      fill="#666260" />
    <path
      d="M167.16 107.23C169.22 107.23 170.89 104.369 170.89 100.84C170.89 97.3106 169.22 94.4497 167.16 94.4497C165.1 94.4497 163.43 97.3106 163.43 100.84C163.43 104.369 165.1 107.23 167.16 107.23Z"
      fill="#666260" />
    <path
      d="M167.16 110.72C163.04 110.72 159.93 106.47 159.93 100.83C159.93 95.1899 163.04 90.9399 167.16 90.9399C171.28 90.9399 174.39 95.1899 174.39 100.83C174.39 106.47 171.28 110.72 167.16 110.72ZM167.16 99.0499C167.03 99.5199 166.93 100.12 166.93 100.83C166.93 101.54 167.03 102.14 167.16 102.61C167.29 102.14 167.39 101.54 167.39 100.83C167.39 100.12 167.29 99.5199 167.16 99.0499Z"
      fill="#666260" />
    <path
      d="M128.31 136.55C122.83 136.55 118.11 135.85 114.16 134.86C98.78 130.98 91.31 121.91 91 121.53C89.79 120.03 90.02 117.82 91.52 116.61C93.02 115.4 95.21 115.63 96.43 117.12C96.54 117.25 103.07 124.99 116.32 128.19C134.14 132.5 156.06 126.72 179.7 111.48C181.32 110.43 183.49 110.9 184.54 112.53C185.59 114.15 185.12 116.32 183.49 117.37C160.45 132.21 142.01 136.56 128.3 136.56L128.31 136.55Z"
      fill="#70513A" />
    <path
      d="M251.71 64.4599C232.97 26.0599 190.6 5.60989 144.8 8.23989C184.41 10.5499 219.51 30.4699 236.09 64.4599C262.39 118.36 232.19 187.2 168.63 218.22C150.35 227.14 131.31 231.95 112.82 233.01C136.02 234.36 160.77 229.67 184.25 218.22C247.81 187.2 278.02 118.36 251.71 64.4599Z"
      fill="#B78D63" />
    <path
      d="M179.59 10.7998C170.95 21.0998 155.41 40.8398 153.37 51.7798C153.37 51.7798 189.35 35.4298 219.66 27.6498C207.88 19.5998 194.25 13.9198 179.59 10.7998Z"
      fill="#666260" />
    <path
      d="M153.37 56.78C152.27 56.78 151.18 56.42 150.29 55.72C148.82 54.57 148.11 52.7 148.46 50.87C150.58 39.48 164.48 21.05 175.76 7.59003C176.95 6.17003 178.82 5.53003 180.63 5.91003C196.12 9.20003 210.2 15.13 222.48 23.52C224.1 24.63 224.92 26.58 224.58 28.51C224.24 30.44 222.8 32 220.9 32.49C191.38 40.06 155.79 56.17 155.43 56.33C154.77 56.63 154.06 56.78 153.36 56.78H153.37ZM181.48 16.35C173.26 26.33 166.83 35.28 162.82 42.24C173.57 37.74 190.42 31.07 207.21 25.96C199.28 21.76 190.67 18.54 181.48 16.35Z"
      fill="#666260" />
    <path
      d="M240.25 100.6C240.25 100.6 254.81 56.7202 280.34 44.3902C305.87 32.0702 299.58 91.7602 279.76 116.88C259.94 142 233.44 157.17 233.44 157.17"
      fill="#CCAA83" />
    <path
      d="M233.45 161.04C232.11 161.04 230.8 160.34 230.09 159.09C229.03 157.24 229.67 154.87 231.53 153.81C231.79 153.66 257.64 138.68 276.73 114.49C291.67 95.5501 297.6 57.7701 290.03 48.3401C289.28 47.4101 287.53 45.2201 282.02 47.8801C258.27 59.3401 244.06 101.4 243.92 101.82C243.25 103.85 241.06 104.95 239.03 104.27C237 103.6 235.9 101.41 236.58 99.3801C237.2 97.5201 251.96 53.7901 278.67 40.9101C288.29 36.2701 293.7 40.5401 296.08 43.5001C307.41 57.6201 297.99 100.05 282.82 119.28C262.77 144.7 236.49 159.89 235.39 160.53C234.78 160.88 234.12 161.04 233.47 161.04H233.45Z"
      fill="#666260" />
    <path
      d="M276.73 114.48C291.67 95.54 297.6 57.76 290.03 48.33C289.31 47.43 287.64 45.38 282.6 47.61C289.66 64.77 281.78 101.04 268.68 118.73C260.13 130.27 250.29 139.84 241.9 146.97C251.24 140.32 265.21 129.08 276.73 114.47V114.48Z"
      fill="#B78D63" />
    <path
      d="M29.94 219C21.7 219 15.23 216.29 10.73 210.93C2.17001 200.76 4.07001 184.52 4.52001 181.47C4.38001 178.48 4.13001 165.07 10.2 157.28C12.94 153.76 17.87 151.76 22.63 149.82C24.83 148.93 28.36 147.49 29.56 146.46C29.29 146.09 28.73 145.44 27.57 144.52C20.16 138.61 17.16 129.67 19.93 121.74C22.11 115.5 27.37 111.63 33.64 111.63C34.38 111.63 35.14 111.68 35.9 111.79C52.78 114.22 66.67 136.11 69.28 140.47C76.01 151.7 74.67 160.75 71.74 180.57L71.38 182.99C67.89 206.66 60.97 218.08 31.06 218.97C30.68 218.98 30.3 218.99 29.93 218.99L29.94 219Z"
      fill="#CCAA83" />
    <path
      d="M33.65 115.64C34.2 115.64 34.76 115.68 35.34 115.76C47.46 117.51 59.63 132.13 65.86 142.54C72.1 152.95 70.54 161.35 67.44 182.42C64.34 203.49 59.28 214.14 30.96 214.98C30.62 214.99 30.28 215 29.94 215C2.77002 215 8.53002 181.68 8.53002 181.68C8.53002 181.68 7.63002 167.09 13.35 159.74C19.07 152.39 42.78 151.53 30.07 141.4C17.96 131.75 22.7 115.64 33.65 115.64ZM33.65 107.64C25.74 107.64 18.88 112.66 16.16 120.43C13.15 129.05 15.7 138.59 22.65 145.5C22.11 145.72 21.59 145.94 21.12 146.13C16.11 148.16 10.44 150.47 7.04002 154.84C0.400024 163.36 0.370024 177.28 0.510024 181.25C-0.119976 185.7 -1.70998 202.37 7.67002 213.51C11.31 217.84 18.14 223 29.94 223C30.35 223 30.77 223 31.19 222.98C47.22 222.51 57.47 219.07 64.42 211.84C71.05 204.94 73.59 195.56 75.35 183.59L75.71 181.17C78.69 161.01 80.19 150.89 72.72 138.43C69.94 133.79 55.14 110.53 36.47 107.84C35.53 107.7 34.57 107.63 33.64 107.63L33.65 107.64Z"
      fill="#666260" />
    <path
      d="M65.86 142.54C59.62 132.13 47.46 117.51 35.34 115.76C32.68 115.38 30.33 115.91 28.4 117.07C37.4 122.33 45.6 132.71 50.36 140.65C56.6 151.06 55.04 159.46 51.94 180.53C48.99 200.52 44.28 211.12 19.63 212.88C22.61 214.32 26.32 215.12 30.96 214.98C59.29 214.14 64.34 203.49 67.44 182.42C70.54 161.35 72.1 152.95 65.86 142.54Z"
      fill="#B78D63" />
  </g>
  <defs>
    <clipPath id="clip0_347_4805">
      <rect width="301.07" height="241.25" fill="white" />
    </clipPath>
  </defs>
</svg>