<svg width="204" height="36" viewBox="0 0 204 36" fill="none" xmlns="http://www.w3.org/2000/svg">
  <path
    d="M78.068 0.0102813H62.6543C61.6858 0.0102813 60.9028 0.837927 60.9028 1.86092V34.1391C60.9028 35.1621 61.6858 35.9897 62.6543 35.9897C63.5301 35.7532 70.8197 29.1064 72.4167 27.7544C72.4734 27.703 72.53 27.6516 72.597 27.6053C72.597 27.6053 72.6021 27.6002 72.6073 27.595C72.6227 27.5796 72.6434 27.5745 72.6588 27.5642C72.9215 27.3997 73.2255 27.2969 73.55 27.2969H78.882C80.9427 27.2969 82.6582 26.9319 84.0336 26.1916C85.4091 25.4565 86.5322 24.4592 87.3925 23.1946C88.2528 21.93 88.8659 20.4547 89.2317 18.7582C89.5974 17.0618 89.7777 15.242 89.7777 13.2886C89.7777 4.43124 85.8728 0 78.0629 0L78.068 0.0102813ZM72.53 17.9923C70.9124 16.9539 70.4745 14.3116 71.577 11.9315C72.4991 9.94203 74.2095 8.74425 75.7756 8.81108C76.1413 8.8265 76.2701 9.31487 75.9662 9.53077C75.2913 10.014 74.6473 10.744 74.4258 11.8389C74.2249 12.8465 74.2764 13.7564 74.3228 14.5583C74.3898 15.6687 74.4413 16.5478 73.7973 17.2418C73.4882 17.5708 73.1843 17.8124 72.8958 17.9871C72.7824 18.0591 72.6382 18.0591 72.5249 17.9871L72.53 17.9923ZM78.1041 15.3037C77.1356 17.3908 75.2965 18.6143 73.6634 18.4035C73.4419 18.3727 73.617 18.1928 73.617 18.1928C73.8076 18.0437 74.0034 17.8689 74.1992 17.6581C75.0183 16.774 74.9564 15.679 74.8843 14.5223C74.838 13.7564 74.7864 12.8928 74.9719 11.9623C75.2501 10.5795 76.3938 9.85977 77.1871 9.52049C77.3159 9.46394 77.4705 9.47937 77.5786 9.58218C78.8356 10.7851 79.0984 13.1447 78.1041 15.2986V15.3037Z"
    fill="#CEAC8A" />
  <path
    d="M24.6815 30.3042L24.7434 31.0084C24.9391 33.2292 23.4297 35.2546 21.2505 35.6247C19.7875 35.8715 18.1802 35.9949 16.4337 35.9949C13.1934 35.9949 10.5145 35.635 8.39718 34.9205C6.27986 34.2059 4.59527 33.111 3.35887 31.6459C2.11733 30.1808 1.2467 28.3199 0.746989 26.0631C0.247279 23.8064 0 21.1332 0 18.0488C0 14.9644 0.231824 12.4404 0.705775 10.1991C1.17458 7.95773 2.01429 6.07625 3.22493 4.57004C4.43557 3.05869 6.07894 1.9226 8.1499 1.16179C10.2209 0.39069 12.8482 0.0102813 16.0268 0.0102813C16.7222 0.0102813 17.5001 0.0514065 18.3656 0.123376C19.2259 0.200485 20.076 0.298158 20.9105 0.421534C21.7451 0.544909 22.5281 0.688848 23.27 0.858489H23.2906C24.2952 1.08982 24.934 2.08196 24.7382 3.09981L24.2179 5.7781C23.7955 7.96801 21.776 9.4588 19.5814 9.22747C18.649 9.1298 17.768 9.07839 16.9335 9.07839C14.9655 9.07839 13.6055 9.26346 12.8482 9.62844C12.0909 9.99343 11.7148 10.7285 11.7148 11.8235V24.1765C11.7148 25.3948 12.6267 26.4127 13.827 26.5412C14.5379 26.6183 15.2746 26.6543 16.0319 26.6543C17.3765 26.6543 18.6644 26.5669 19.8957 26.3921C22.2963 26.0528 24.4755 27.8675 24.6867 30.3042H24.6815Z"
    fill="#F56F20" />
  <path
    d="M35.9173 0.0102813C37.3134 0.0102813 38.4416 1.17721 38.4416 2.61659V23.7858C38.4416 25.2252 39.5698 26.3921 40.9659 26.3921H42.3002C43.6911 26.3921 44.639 26.2019 45.1387 25.8318C45.6384 25.4565 45.8857 24.6443 45.8857 23.3951V2.61659C45.8857 1.17721 47.0139 0.0102813 48.41 0.0102813H54.2571C55.6532 0.0102813 56.7814 1.17721 56.7814 2.61659V19.735C56.7814 22.732 56.5908 25.2663 56.2148 27.3277C55.8335 29.3891 55.1072 31.0701 54.0356 32.3656C52.9589 33.661 51.4701 34.5915 49.564 35.1518C47.6579 35.7121 45.1902 35.9949 42.1611 35.9949C39.1319 35.9949 36.6643 35.7121 34.7582 35.1518C32.852 34.5915 31.3581 33.6661 30.2865 32.3861C29.2098 31.1061 28.4834 29.4251 28.1074 27.3483C27.7262 25.2715 27.5407 22.732 27.5407 19.735V2.61659C27.5407 1.17721 28.6689 0.0102813 30.065 0.0102813H35.9173Z"
    fill="#CEAC8A" />
  <path
    d="M125.2 33.9026V2.10253C125.2 0.94588 126.087 0.0102813 127.184 0.0102813H134.118C135.215 0.0102813 136.101 0.94588 136.101 2.10253V33.8975C136.101 35.0541 135.215 35.9897 134.118 35.9897H127.184C126.087 35.9897 125.2 35.0541 125.2 33.8975V33.9026Z"
    fill="#CEAC8A" />
  <path
    d="M169.355 35.9949H162.024C161.391 35.9949 160.798 35.6659 160.443 35.1158L152.705 23.2306C152.556 23.0096 152.432 22.6703 152.339 22.223C152.247 21.7758 152.19 21.1846 152.159 20.4495H151.932V33.9643C151.932 35.085 151.072 35.9949 150.011 35.9949H142.953C141.892 35.9949 141.031 35.085 141.031 33.9643V2.04084C141.031 0.920177 141.892 0.0102813 142.953 0.0102813H150.284C150.917 0.0102813 151.51 0.339283 151.865 0.889333L159.603 12.7745C159.753 13.0007 159.876 13.3349 159.969 13.7821C160.062 14.2293 160.118 14.8205 160.149 15.5556H160.376V2.04084C160.376 0.920177 161.236 0.0102813 162.297 0.0102813H169.355C170.416 0.0102813 171.277 0.920177 171.277 2.04084V33.9694C171.277 35.0901 170.416 36 169.355 36V35.9949Z"
    fill="#CEAC8A" />
  <path
    d="M193.645 25.0504V24.9836C193.645 24.2125 193.027 23.5853 192.259 23.5853C191.497 23.5853 190.874 22.9582 190.874 22.1871V16.558C190.874 15.7869 191.492 15.1598 192.259 15.1598H202.614C203.377 15.1598 204 15.7869 204 16.558V32.5403C204 33.1264 203.639 33.661 203.088 33.8563C199.07 35.2803 194.907 35.9897 190.606 35.9897C187.427 35.9897 184.8 35.6093 182.729 34.8434C180.653 34.0825 179.015 32.9413 177.804 31.4351C176.593 29.9237 175.754 28.0474 175.285 25.8061C174.816 23.5648 174.579 20.9482 174.579 17.9563C174.579 14.7845 174.867 12.06 175.439 9.78266C176.016 7.5105 176.969 5.64958 178.298 4.19477C179.628 2.74511 181.4 1.68613 183.61 1.01271C185.82 0.339283 188.561 0.00514065 191.827 0.00514065C192.553 0.00514065 193.408 0.0462659 194.392 0.118235C195.376 0.195345 196.365 0.303299 197.365 0.436956C198.364 0.570613 199.312 0.724832 200.203 0.894474C200.507 0.951021 200.791 1.00757 201.053 1.06926C201.79 1.23376 202.259 1.95859 202.115 2.70398L200.981 8.53349C200.842 9.26346 200.152 9.75182 199.425 9.64387C198.416 9.49479 197.442 9.37141 196.504 9.27374C195.17 9.13494 193.929 9.06811 192.78 9.06811C190.389 9.06811 188.71 9.25318 187.741 9.61816C186.773 9.98315 186.289 10.7183 186.289 11.8132V25.9809C186.289 26.752 186.907 27.3791 187.674 27.3791H189.874C191.208 27.3791 192.167 27.2352 192.759 26.9422C193.352 26.6543 193.645 26.0168 193.645 25.0401V25.0504Z"
    fill="#CEAC8A" />
  <path
    d="M110.214 0.0102813H94.8006C93.8321 0.0102813 93.049 0.837927 93.049 1.86092V34.1391C93.049 35.1621 93.8321 35.9897 94.8006 35.9897C95.6764 35.7532 102.966 29.1064 104.563 27.7544C104.62 27.703 104.676 27.6516 104.743 27.6053C104.743 27.6053 104.748 27.6002 104.754 27.595C104.769 27.5796 104.79 27.5745 104.805 27.5642C105.068 27.3997 105.372 27.2969 105.696 27.2969H111.028C113.089 27.2969 114.804 26.9319 116.18 26.1916C117.555 25.4565 118.678 24.4592 119.539 23.1946C120.399 21.93 121.012 20.4547 121.378 18.7582C121.744 17.0618 121.924 15.242 121.924 13.2886C121.924 4.43124 118.019 0 110.209 0L110.214 0.0102813ZM104.676 17.9923C103.059 16.9539 102.621 14.3116 103.723 11.9315C104.645 9.94203 106.356 8.74425 107.922 8.81108C108.288 8.8265 108.416 9.31487 108.112 9.53077C107.438 10.014 106.794 10.744 106.572 11.8389C106.371 12.8465 106.423 13.7564 106.469 14.5583C106.536 15.6687 106.588 16.5478 105.944 17.2418C105.634 17.5708 105.331 17.8124 105.042 17.9871C104.929 18.0591 104.784 18.0591 104.671 17.9871L104.676 17.9923ZM110.25 15.3037C109.282 17.3908 107.443 18.6143 105.81 18.4035C105.588 18.3727 105.763 18.1928 105.763 18.1928C105.954 18.0437 106.15 17.8689 106.345 17.6581C107.165 16.774 107.103 15.679 107.031 14.5223C106.984 13.7564 106.933 12.8928 107.118 11.9623C107.396 10.5795 108.54 9.85977 109.333 9.52049C109.462 9.46394 109.617 9.47937 109.725 9.58218C110.982 10.7851 111.245 13.1447 110.25 15.2986V15.3037Z"
    fill="#F56F20" />
</svg>