<svg height="512pt" viewBox="-85 0 512 512" width="512pt" xmlns="http://www.w3.org/2000/svg">
  <path
    d="m0 170.667969c0 153.597656 170.667969 341.332031 170.667969 341.332031s170.664062-187.734375 170.664062-341.332031c0-94.257813-76.410156-170.667969-170.664062-170.667969-94.257813 0-170.667969 76.410156-170.667969 170.667969zm238.933594-17.066407c0 37.703126-30.5625 68.265626-68.265625 68.265626s-68.265625-30.5625-68.265625-68.265626c0-37.703124 30.5625-68.269531 68.265625-68.269531s68.265625 30.566407 68.265625 68.269531zm0 0"
    fill="#ff6243" />
  <path
    d="m238.933594 153.601562c0 37.703126-30.5625 68.265626-68.265625 68.265626s-68.265625-30.5625-68.265625-68.265626c0-37.703124 30.5625-68.269531 68.265625-68.269531s68.265625 30.566407 68.265625 68.269531zm0 0"
    fill="#ffde55" />
</svg>